<?xml version="1.0" standalone="no"?>
<!DOCTYPE svg PUBLIC "-//W3C//DTD SVG 20010904//EN"
 "http://www.w3.org/TR/2001/REC-SVG-20010904/DTD/svg10.dtd">
<svg version="1.0" xmlns="http://www.w3.org/2000/svg"
 width="200.000000pt" height="200.000000pt" viewBox="0 0 200.000000 200.000000"
 preserveAspectRatio="xMidYMid meet">
<metadata>
Created by potrace 1.11, written by Peter Selinger 2001-2013
</metadata>
<g transform="translate(0.000000,200.000000) scale(0.100000,-0.100000)"
fill="#000000" stroke="none">
<path d="M875 1870 c-3 -5 -23 -10 -43 -10 -49 0 -133 -40 -155 -74 -11 -16
-27 -26 -42 -26 -38 0 -89 -53 -124 -129 l-32 -69 4 -184 c2 -101 10 -212 17
-248 9 -46 9 -65 1 -68 -16 -5 -13 -55 5 -78 15 -18 15 -17 11 17 -4 25 -1 36
8 36 9 0 14 -18 17 -59 2 -32 0 -58 -5 -58 -13 0 -3 -65 13 -77 12 -10 12 -14
3 -21 -17 -11 21 -225 47 -267 40 -64 51 -87 46 -100 -2 -7 -29 -25 -60 -40
-30 -15 -70 -41 -88 -59 -19 -18 -45 -36 -58 -39 -32 -8 -131 -68 -226 -137
-41 -30 -99 -72 -127 -93 -28 -20 -59 -37 -69 -37 -11 0 -18 -8 -18 -20 0 -24
0 -24 70 -5 30 8 64 15 75 14 11 0 -5 -7 -34 -15 -30 -8 -57 -16 -59 -19 -12
-11 169 -2 192 11 29 14 90 8 80 -8 -4 -6 37 -8 112 -4 147 7 136 7 214 0 64
-6 65 -6 47 14 -10 11 -26 19 -35 17 -9 -1 -11 0 -4 2 6 3 12 6 12 9 0 2 -24
53 -54 112 -81 163 -81 181 6 187 24 2 55 8 69 13 36 14 73 -10 66 -44 -3 -16
0 -24 9 -24 9 0 11 -6 7 -17 -6 -16 -5 -17 12 -3 14 11 19 12 22 3 3 -7 12
-13 20 -13 10 0 13 -6 9 -16 -5 -14 -4 -15 9 -4 8 7 15 8 15 3 0 -12 105 -28
167 -26 47 2 139 46 190 91 62 55 75 63 90 57 13 -4 14 -3 3 10 -7 9 -10 18
-6 22 3 3 6 1 6 -6 0 -8 7 -10 20 -6 16 5 19 3 14 -12 -5 -13 -2 -12 10 5 10
13 22 19 29 15 7 -4 21 -9 32 -10 35 -5 55 -41 55 -99 0 -30 3 -53 8 -53 23 4
24 -4 2 -16 -15 -9 -19 -14 -10 -15 13 0 13 -2 1 -9 -8 -5 -14 -22 -15 -39 0
-17 -3 -28 -5 -26 -3 3 -15 -24 -27 -58 -13 -34 -20 -65 -17 -68 3 -3 8 1 10
8 3 6 9 12 14 12 6 0 8 -4 5 -8 -6 -10 101 -15 117 -5 8 5 4 9 -11 13 -37 8
-26 24 17 25 22 1 48 9 59 18 23 21 39 22 22 2 -7 -8 -10 -21 -7 -28 3 -8 -3
-14 -16 -14 -39 -3 -36 -18 4 -21 23 -1 38 1 35 7 -8 12 51 20 63 8 5 -5 65
-12 133 -14 l123 -5 -39 22 c-21 12 -47 20 -56 17 -9 -2 -25 0 -35 6 -11 5
-38 9 -61 9 -23 -1 -57 5 -75 13 l-34 15 35 -4 c19 -3 62 -8 95 -12 80 -9 83
-10 137 -28 29 -9 50 -11 53 -5 9 14 -2 26 -32 32 -16 3 -37 13 -48 21 -18 14
-17 14 20 6 22 -5 41 -7 44 -5 5 6 -19 35 -30 35 -5 0 -47 27 -94 61 -91 65
-265 159 -295 159 -10 0 -25 6 -32 14 -8 7 -50 33 -94 56 -43 23 -82 48 -86
55 -4 7 0 23 11 36 62 81 83 171 81 362 -1 141 0 148 22 170 27 27 30 51 30
202 -1 239 -7 307 -32 355 -27 53 -99 150 -111 150 -5 0 -26 15 -47 34 -36 33
-107 66 -143 66 -9 0 -36 9 -60 20 -33 15 -66 20 -131 20 -48 0 -90 -4 -93
-10z m83 -435 c27 -14 36 -14 48 -4 8 7 50 14 92 16 72 4 80 2 124 -26 33 -21
55 -46 72 -80 20 -38 32 -50 55 -54 27 -6 31 -11 31 -37 0 -17 9 -52 21 -77
19 -42 21 -59 16 -192 -5 -149 -8 -175 -26 -209 -6 -11 -8 -21 -6 -24 2 -2
-11 -21 -30 -43 -19 -21 -35 -45 -35 -52 0 -7 -4 -12 -9 -10 -5 1 -18 -9 -30
-22 l-20 -23 -22 36 c-16 28 -31 39 -65 47 -24 6 -55 22 -69 35 -30 28 -45 30
-85 9 -27 -14 -60 -12 -60 5 0 9 52 21 103 23 41 2 45 8 21 31 -21 21 -26 20
-54 -9 -28 -30 -45 -31 -67 -5 -21 24 -63 27 -63 5 0 -8 -5 -15 -11 -15 -5 0
-7 -5 -4 -11 10 -16 -25 -49 -52 -49 -29 0 -65 -17 -76 -36 -4 -8 -13 -14 -20
-14 -7 0 -6 4 3 10 20 13 4 13 -20 0 -14 -7 -21 -7 -27 2 -4 7 -15 13 -23 13
-10 0 -15 10 -15 28 1 19 -3 26 -12 22 -8 -2 -18 5 -23 18 -5 13 -9 16 -10 7
0 -8 -11 17 -25 55 -18 53 -24 92 -25 158 0 48 4 87 9 87 5 0 7 10 4 21 -4 15
0 27 13 37 16 13 16 14 2 9 -10 -4 -18 -4 -18 -1 0 11 29 34 42 34 10 0 10 2
-1 9 -8 6 -11 16 -6 31 5 17 4 20 -5 15 -8 -5 -11 -3 -8 6 3 8 11 13 17 12 6
-2 11 6 11 17 0 11 3 20 8 20 4 0 12 10 17 23 6 12 17 22 25 22 8 0 14 7 13
15 -2 9 27 44 63 79 l65 64 57 -6 c31 -3 72 -13 90 -22z m-338 -155 c-6 -12
-14 -20 -17 -17 -2 3 1 14 8 26 17 26 24 19 9 -9z m-60 -154 c0 -2 -8 -10 -17
-17 -16 -13 -17 -12 -4 4 13 16 21 21 21 13z m444 -498 c-7 -11 -34 -10 -34 1
0 6 9 9 19 8 11 0 17 -5 15 -9z m82 -71 c-1 -30 -34 -47 -64 -36 -15 6 -21 5
-17 -1 3 -6 -1 -10 -10 -10 -10 0 -13 5 -9 12 5 8 2 9 -12 3 -35 -14 -62 -17
-68 -7 -4 6 2 8 16 4 14 -3 19 -2 14 6 -4 7 -14 12 -22 12 -8 0 -12 5 -9 10 3
6 0 10 -7 10 -9 0 -10 2 -1 8 6 4 51 8 101 9 86 1 89 0 88 -20z m84 -12 c0
-19 -36 -39 -45 -25 -8 13 13 40 31 40 8 0 14 -7 14 -15z m-49 -68 c-10 -9
-11 -8 -5 6 3 10 9 15 12 12 3 -3 0 -11 -7 -18z m-213 -24 c2 -7 -4 -13 -13
-13 -9 0 -13 5 -9 11 4 8 0 8 -15 0 -20 -11 -29 -2 -14 13 11 10 46 3 51 -11z
m212 -5 c0 -13 -23 -5 -28 10 -2 7 2 10 12 6 9 -3 16 -11 16 -16z m465 -168
c3 -6 -1 -7 -9 -4 -18 7 -21 14 -7 14 6 0 13 -4 16 -10z m94 -36 c14 -12 -19
-1 -35 12 -18 14 -18 14 6 3 14 -6 27 -13 29 -15z m-84 -24 c17 -19 17 -19 -9
-7 -14 7 -26 15 -26 20 0 13 17 7 35 -13z m60 -14 c11 -8 25 -12 31 -9 7 2 15
0 19 -6 3 -6 1 -11 -6 -11 -21 0 -79 24 -79 32 0 12 14 10 35 -6z m-1170 -16
c-3 -5 -18 -10 -33 -10 -21 0 -24 2 -12 10 20 13 53 13 45 0z m1123 -29 c26
-22 27 -28 8 -28 -8 0 -14 5 -13 11 1 6 -5 12 -13 12 -8 1 -21 2 -28 3 -16 1
-6 21 11 21 7 -1 22 -9 35 -19z m252 -11 c0 -5 -2 -10 -4 -10 -3 0 -8 5 -11
10 -3 6 -1 10 4 10 6 0 11 -4 11 -10z m-1336 -19 c3 -5 -17 -13 -45 -18 -36
-8 -49 -7 -46 1 2 6 13 11 24 11 12 0 25 3 29 8 10 10 32 9 38 -2z m1319 -10
c9 -1 17 -6 17 -11 0 -6 -13 -8 -31 -5 -17 3 -54 7 -81 9 -27 2 -54 8 -59 13
-5 5 20 6 64 1 39 -3 80 -7 90 -7z m-1596 -7 c-3 -3 -12 -4 -19 -1 -8 3 -5 6
6 6 11 1 17 -2 13 -5z m1367 -13 c6 -10 -52 -24 -65 -15 -5 3 -9 9 -9 15 0 11
67 12 74 0z m-1060 -28 c11 -11 -135 -44 -166 -37 -46 9 -31 19 31 21 33 0 68
6 78 12 21 12 47 14 57 4z m-354 -23 c0 -5 -8 -10 -17 -10 -15 0 -16 2 -3 10
19 12 20 12 20 0z m35 0 c-3 -5 -11 -10 -16 -10 -6 0 -7 5 -4 10 3 6 11 10 16
10 6 0 7 -4 4 -10z"/>
<path d="M704 1149 c-2 -4 -16 -10 -31 -14 -26 -6 -42 -21 -43 -37 0 -3 15 -1
34 4 21 7 60 8 102 3 l69 -8 -60 -12 c-33 -7 -72 -19 -87 -27 -25 -13 -25 -15
-10 -35 27 -33 46 -33 60 1 l13 30 20 -33 c19 -32 21 -33 40 -16 10 10 19 24
19 32 0 15 9 16 29 4 7 -5 10 -14 7 -20 -11 -17 23 -13 41 4 11 12 12 19 4 29
-6 7 -9 20 -6 29 11 28 -53 61 -128 67 -38 3 -71 2 -73 -1z"/>
<path d="M1187 1154 c-3 -4 -20 -8 -37 -10 -17 -2 -40 -13 -52 -24 -18 -17
-19 -20 -5 -26 9 -3 21 -3 26 1 23 14 166 33 188 24 33 -12 28 -2 -8 17 -17 9
-41 13 -54 10 -13 -3 -27 -2 -30 4 -7 11 -19 13 -28 4z"/>
<path d="M1099 1063 c-9 -10 -14 -25 -12 -35 5 -20 30 -31 39 -16 4 7 3 8 -4
4 -7 -4 -12 -3 -12 2 0 16 33 24 42 10 4 -7 8 -16 8 -20 0 -5 12 -8 26 -8 17
0 28 6 31 20 7 26 23 26 30 -1 7 -24 46 -23 50 1 5 28 -14 42 -63 45 -27 2
-65 6 -84 10 -28 5 -39 2 -51 -12z"/>
<path d="M1477 1016 c-6 -16 2 -28 14 -20 12 7 11 34 0 34 -5 0 -11 -6 -14
-14z"/>
<path d="M273 3 c9 -2 23 -2 30 0 6 3 -1 5 -18 5 -16 0 -22 -2 -12 -5z"/>
</g>
</svg>
